<svg fill="none" height="32" viewBox="0 0 32 32" width="32" xmlns="http://www.w3.org/2000/svg"><path clip-rule="evenodd" d="m5.58991 11c-3.06541 0-5.6409383 2.5306-5.58914209 5.5905.05083869 3.0029 2.53950209 5.4095 5.58950209 5.4095 1.30963 0 2.51581-.4437 3.46989-1.188.95414.7442 2.16034 1.188 3.47004 1.188 1.3096 0 2.5158-.4437 3.4699-1.188.9541.7442 2.1603 1.188 3.47 1.188s2.5159-.4437 3.4699-1.188c.9542.7442 2.1604 1.188 3.4701 1.188 3.0496 0 5.5383-2.4062 5.5891-5.4095.0518-3.0601-2.5238-5.5905-5.5893-5.5905-1.2988 0-2.5096.4542-3.4699 1.2104-.9605-.7562-2.1714-1.2104-3.4702-1.2104s-2.5095.4542-3.4699 1.2104c-.9603-.7562-2.1711-1.2104-3.4699-1.2104s-2.5096.4542-3.46996 1.2105c-.96039-.7563-2.1713-1.2105-3.47013-1.2105zm6.94029 9.7518c-.9597 0-1.8469-.3077-2.56474-.8286.74164-.9165 1.19264-2.072 1.21394-3.3327.0222-1.3139-.4399-2.5301-1.21712-3.4903.72372-.5337 1.61572-.852 2.56772-.852.9521 0 1.844.3183 2.5677.8519-.7773.9603-1.2395 2.1767-1.2174 3.4905.0215 1.2606.4726 2.4162 1.2144 3.3327-.7178.5209-1.6049.8285-2.5645.8285zm-2.61671-4.1821c.01624-.9595-.30582-1.8548-.85343-2.5789-.54761.7241-.86967 1.6194-.85343 2.5789.01565.9246.33067 1.7767.8535 2.4671.52273-.6904.8377-1.5424.85336-2.4671zm-2.97278.0208c-.02224-1.3139.43986-2.5301 1.21712-3.4903-.72372-.5337-1.6158-.852-2.56792-.852-2.36701 0-4.36306 1.968-4.32322 4.3215.03926 2.3194 1.96221 4.1821 4.32358 4.1821.95956 0 1.84676-.3076 2.56456-.8286-.74179-.9165-1.19278-2.072-1.21412-3.3327zm11.17859 0c.0223-1.3139-.4398-2.5301-1.2171-3.4904.7236-.5336 1.6156-.8519 2.5676-.8519.9521 0 1.8442.3183 2.568.852-.7773.9602-1.2394 2.1764-1.2172 3.4903.0213 1.2607.4723 2.4162 1.2141 3.3327-.7178.521-1.605.8286-2.5646.8286s-1.8468-.3077-2.5647-.8286c.7417-.9165 1.1926-2.072 1.2139-3.3327zm3.9672-.0208c-.0162-.9595.3059-1.8549.8535-2.579.5477.7241.8697 1.6195.8534 2.579-.0157.9247-.3307 1.7767-.8534 2.4671-.5228-.6904-.8378-1.5425-.8535-2.4671zm4.3236 4.1821c-.9597 0-1.8469-.3077-2.5648-.8286.7417-.9164 1.1926-2.0719 1.214-3.3326.0224-1.3141-.4397-2.5303-1.217-3.4905.7236-.5336 1.6156-.8519 2.5676-.8519 2.3672 0 4.3633 1.9678 4.3234 4.3215-.0393 2.3198-1.9622 4.1821-4.3232 4.1821zm-9.5567-4.1528c.0162-.9595-.3058-1.8548-.8535-2.5789-.5476.7241-.8696 1.6194-.8534 2.5789.0157.9246.3307 1.7767.8535 2.4671.5227-.6904.8377-1.5424.8534-2.4671z" fill="#000" fill-rule="evenodd"/></svg>