<svg fill="none" height="32" viewBox="0 0 32 32" width="32" xmlns="http://www.w3.org/2000/svg"><path clip-rule="evenodd" d="m16.642 6.78237c-1.6756 1.94728-6.4548 8.23403-6.99942 9.04803-1.04858 1.5597-1.14122 2.3155-1.1721 2.8191-.03041.4943-.03041 1.3855.82258 2.1122 1.42894 1.2012 3.43304 1.0072 5.21154 1.0072h14.6477c.627 0 .8123-.1746 1.1515-.6006 1.1717-1.6858 1.6962-3.5167 1.6962-5.154 0-3.5069-2.4153-7.92404-8.5318-9.91983l-.6892.92998c4.8517 2.16953 6.8567 5.00805 6.8567 8.97975.0309 1.0658-.2677 2.2185-1.0079 3.2843h-14.2472c-.853 0-.9765-.9106-.6682-1.4243 1.2215-2.0486 2.5846-4.0193 4.0806-5.8992 1.4393-1.8115 2.8575-3.50698 4.3482-5.27965.401-.49387.1334-.96879-.6681-1.12357-1.6653-.32939-3.4022-.56178-5.5096-.56178-11.68685 0-15.9635 6.3256-15.9635 11.0143 0 5.0861 4.30707 10.9857 15.9944 10.9857 6.4861 0 10.7318-1.9671 13.1883-4.4952h-2.4775c-2.1486 1.8697-5.839 3.1974-10.7108 3.1974-9.899 0-13.54772-5.2412-13.54772-9.7558.07159-4.0299 3.98795-9.59044 13.79472-9.77432.3702-.00971.6584.30999.4006.61029z" fill="#000" fill-rule="evenodd"/></svg>