<svg fill="none" height="32" viewBox="0 0 32 32" width="32" xmlns="http://www.w3.org/2000/svg"><path clip-rule="evenodd" d="m30 16c0-7.7-6.3-14-14-14s-14 6.3-14 14 6.3 14 14 14 14-6.3 14-14zm-14 11.725c3.1063 0 6.0813-1.225 8.2688-3.4125.7087-.7088 1.3115-1.4882 1.8042-2.3214l-10.1167-4.1536-10.05438 4.128c.49236.8333 1.09036 1.608 1.78558 2.3032 2.23125 2.2313 5.2063 3.4563 8.3125 3.4563zm-10.37855-6.2621c-.87687-1.6668-1.34645-3.5397-1.34645-5.4629 0-3.1063 1.225-6.08126 3.45625-8.22501 2.08144-2.08144 4.87585-3.29144 7.81795-3.40389l-1.3429 10.4914zm10.51655-17.09963c3.055.03447 5.9326 1.21354 8.1308 3.41172 2.1875 2.1875 3.4125 5.16251 3.4125 8.26871 0 1.9177-.4503 3.7687-1.3198 5.4295-1.4742-1.1698-8.3927-6.6544-8.3927-6.6544z" fill="#283544" fill-rule="evenodd"/></svg>