<svg fill="none" height="32" viewBox="0 0 32 32" width="32" xmlns="http://www.w3.org/2000/svg" xmlns:xlink="http://www.w3.org/1999/xlink"><linearGradient id="a" gradientUnits="userSpaceOnUse" x1="1.01855" x2="22.9456" y1="13.5254" y2="13.5254"><stop offset="0" stop-color="#8c8c8c"/><stop offset="1" stop-color="#4d4d4d"/></linearGradient><linearGradient id="b" gradientUnits="userSpaceOnUse" x1="3.43803" x2="28.3484" y1="22.0433" y2="22.0433"><stop offset=".006" stop-color="#1a1a1a"/><stop offset=".01" stop-color="#282828"/><stop offset=".029" stop-color="#5d5d5d"/><stop offset=".046" stop-color="#888"/><stop offset=".062" stop-color="#a6a6a6"/><stop offset=".075" stop-color="#b9b9b9"/><stop offset=".084" stop-color="#bfbfbf"/><stop offset=".143" stop-color="#999"/><stop offset=".208" stop-color="#777"/><stop offset=".28" stop-color="#5a5a5a"/><stop offset=".359" stop-color="#424242"/><stop offset=".449" stop-color="#303030"/><stop offset=".556" stop-color="#232323"/><stop offset=".696" stop-color="#1c1c1c"/><stop offset="1" stop-color="#1a1a1a"/></linearGradient><linearGradient id="c" gradientUnits="userSpaceOnUse" x1="3.66541" x2="28.5736" y1="9.9952" y2="9.9952"><stop offset="0" stop-color="#e0e0e0"/><stop offset=".116" stop-color="#dbdbdb"/><stop offset=".26" stop-color="#ccc"/><stop offset=".42" stop-color="#b2b2b2"/><stop offset=".59" stop-color="#8f8f8f"/><stop offset=".767" stop-color="#626262"/><stop offset=".843" stop-color="#4d4d4d"/><stop offset="1" stop-color="#1a1a1a"/></linearGradient><linearGradient id="d" gradientUnits="userSpaceOnUse" x1="3.99849" x2="27.8129" y1="21.7598" y2="21.7598"><stop offset="0" stop-color="#ececec"/><stop offset=".001" stop-color="#dbdbdb"/><stop offset=".002" stop-color="#d0d0d0"/><stop offset=".003" stop-color="#c9c9c9"/><stop offset=".006" stop-color="#c7c7c7"/><stop offset=".179" stop-color="#c9c9c9"/><stop offset=".28" stop-color="#d2d2d2"/><stop offset=".362" stop-color="#e0e0e0"/><stop offset=".434" stop-color="#f4f4f4"/><stop offset=".466" stop-color="#fff"/><stop offset=".642" stop-color="#fdfdfd"/><stop offset=".734" stop-color="#f5f5f5"/><stop offset=".807" stop-color="#e7e7e7"/><stop offset=".869" stop-color="#d4d4d4"/><stop offset=".925" stop-color="#bcbcbc"/><stop offset=".976" stop-color="#9d9d9d"/><stop offset="1" stop-color="#8c8c8c"/></linearGradient><linearGradient id="e" gradientUnits="userSpaceOnUse" x1="7.10602" x2="28.2391" y1="6.52452" y2="16.4229"><stop offset=".006" stop-color="#c7c7c7"/><stop offset=".025" stop-color="#d2d2d2"/><stop offset=".055" stop-color="#ddd"/><stop offset=".09" stop-color="#e0e0e0"/><stop offset=".098" stop-color="#e9e9e9"/><stop offset=".117" stop-color="#f6f6f6"/><stop offset=".142" stop-color="#fdfdfd"/><stop offset=".197" stop-color="#fff"/><stop offset=".714" stop-color="#8c8c8c"/><stop offset="1" stop-color="#8c8c8c"/></linearGradient><linearGradient id="f" gradientUnits="userSpaceOnUse" x1="27.2688" x2="4.92432" y1="10.6238" y2="10.6238"><stop offset="0" stop-color="#e0e0e0"/><stop offset=".001" stop-color="#e0e0e0"/><stop offset=".006" stop-color="#e0e0e0"/><stop offset=".183" stop-color="#c2c2c2"/><stop offset=".57" stop-color="#757575"/><stop offset="1" stop-color="#1a1a1a"/></linearGradient><linearGradient id="g" gradientUnits="userSpaceOnUse" x1="27.0476" x2="4.74268" y1="21.4512" y2="21.4512"><stop offset="0" stop-color="#1a1a1a"/><stop offset=".017" stop-color="#303030"/><stop offset=".061" stop-color="#656565"/><stop offset=".104" stop-color="#929292"/><stop offset=".146" stop-color="#b4b4b4"/><stop offset=".185" stop-color="#ccc"/><stop offset=".221" stop-color="#dbdbdb"/><stop offset=".25" stop-color="#e0e0e0"/><stop offset=".36" stop-color="#ddd"/><stop offset=".467" stop-color="#d1d1d1"/><stop offset=".572" stop-color="#bdbdbd"/><stop offset=".677" stop-color="#a2a2a2"/><stop offset=".781" stop-color="#7e7e7e"/><stop offset=".885" stop-color="#535353"/><stop offset=".987" stop-color="#212121"/><stop offset="1" stop-color="#1a1a1a"/></linearGradient><clipPath id="h"><path d="m0 0h32v32h-32z"/></clipPath><g clip-path="url(#h)"><path d="m21.1655 13.5067 1.7799-.639-4.1007 3.1265-1.5781.4851z" fill="#1a1a1a"/><path d="m32 16.7758-1.0007.5195-13.7327-.8161 1.5781-.4851z" fill="#8c8c8c"/><path d="m30.9815 18.3731-22.07818.7476 1.78158-.6386 19.9892-.6769z" fill="#1a1a1a"/><path d="m8.90332 19.1209 1.78158-.6386 3.9038-2.972-1.5786.4841z" fill="#8c8c8c"/><path d="m14.5889 15.5098-1.5786.4841-13.0103-.7816 1.0002-.5189z" fill="#1a1a1a"/><path d="m1.29688 14.1875-.312505.5313 13.593725.7968-3.9219 2.9844 20.0313-.7031.2969-.5157-13.7032-.8124 3.875-2.9688z" fill="#eee"/><path d="m1.01843 13.6152.30728.5679-.32551.5105-1.0002.519z" fill="#8c8c8c"/><path d="m1.01855 13.6152.30729.5679 19.83976-.6764 1.78-.639" fill="url(#a)"/><path d="m30.9817 18.3731-.3074-.5679.3251-.5098 1.0006-.5195" fill="#1a1a1a"/><path d="m27.8158 18.2419c-.3165 1.8012-1.024 3.5564-2.143 5.1269-3.928 5.5137-11.4604 6.6937-16.79075 2.6306-3.44068-2.6227-5.13572-6.7988-4.84882-10.913l-.5832.3332c-.17686 4.1817 1.59823 8.3754 5.10051 11.045 5.58746 4.259 13.45476 3.0265 17.57206-2.753 1.1482-1.6116 1.8835-3.4065 2.2257-5.2494z" fill="url(#b)"/><path d="m28.5619 16.5716c.174-4.1787-1.6013-8.36837-5.1012-11.03614-5.5871-4.25912-13.4544-3.02661-17.57184 2.75291-1.14546 1.60787-1.88005 3.39813-2.22333 5.23653l.51572.3166c.30932-1.8304 1.02137-3.6156 2.15755-5.21022 3.9279-5.51366 11.4603-6.69383 16.7905-2.63064 3.4621 2.63907 5.1569 6.85086 4.8433 10.98976z" fill="url(#c)"/><path d="m27.0413 18.309c-.6768 3.4412-2.8406 6.5304-6.1247 8.1761-5.5889 2.801-12.3391.3762-15.04701-5.405-.87928-1.8771-1.22585-3.881-1.10165-5.8271l-.73628-.1539c-.15171 2.1076.21433 4.282 1.16754 6.317 2.88704 6.1637 10.0836 8.7489 16.0423 5.7625 3.5718-1.7899 5.9006-5.1814 6.5715-8.9389z" fill="url(#d)"/><path d="m27.9733 16.9903c.1685-2.1352-.1944-4.3423-1.161-6.4058-2.8869-6.16372-10.0836-8.74881-16.0424-5.76249-3.59719 1.80264-5.93351 5.22989-6.58533 9.01939l.7459.0623c.62838-3.5257 2.81299-6.70858 6.16423-8.38813 5.5893-2.80104 12.3393-.37629 15.0471 5.40493.9018 1.9252 1.2432 3.9836 1.0914 5.9764z" fill="url(#e)"/><path d="m27.2357 16.898c.0219-.2963.0331-.5957.0331-.8979 0-6.42411-5.0526-11.65049-11.2633-11.65049-5.5201 0-10.12548 4.12901-11.08118 9.55809l.6611-.4481c1.11296-4.88495 5.36248-8.53203 10.42008-8.53203 5.9025 0 10.7045 4.96721 10.7045 11.07253 0 .2181-.0062.4361-.0184.6537z" fill="url(#f)"/><path d="m26.4236 18.5513c-1.1167 4.8797-5.3639 8.5214-10.4178 8.5214-5.9023 0-10.70438-4.9672-10.70438-11.0725 0-.1767.00408-.3524.01201-.5271l-.54777-.2211c-.0153.2491-.02296.4986-.02298.7482 0 6.4242 5.05261 11.6505 11.26312 11.6505 5.4478 0 10.0045-4.0213 11.0418-9.3447z" fill="url(#g)"/></g></svg>