<svg fill="none" height="32" viewBox="0 0 32 32" width="32" xmlns="http://www.w3.org/2000/svg" xmlns:xlink="http://www.w3.org/1999/xlink"><linearGradient id="a" gradientUnits="userSpaceOnUse" x1="2.00431" x2="29.9955" y1="2.0043" y2="29.9955"><stop offset="0" stop-color="#2088fa"/><stop offset="1" stop-color="#032b5c"/></linearGradient><g clip-rule="evenodd" fill-rule="evenodd"><path d="m16.0061 29.9998c7.7306 0 13.9939-6.2633 13.9939-13.9937 0-7.74282-6.2633-14.0061-13.9939-14.0061-7.73049 0-14.0061 6.26328-14.0061 14.0061 0 7.7304 6.27561 13.9937 14.0061 13.9937z" fill="url(#a)"/><path d="m8.52242 23.3912c.8821.8818 1.90768 1.6072 3.03298 2.1451l-3.03298-6.9535-2.52751-5.7948c-.33289 1.011-.5055 2.096-.5055 3.2179 0 2.8728 1.15895 5.4866 3.03301 7.3853zm14.96758 2.6878c3.07-2.281 5.0673-5.9429 5.0673-10.0731 0-4.1303-1.9973-7.79208-5.0673-10.08533-2.096-1.55349-4.685-2.47819-7.4837-2.47819-2.7988 0-5.3879.9247-7.48388 2.47819-3.07 2.29325-5.06734 5.95503-5.06734 10.08533 0 4.1302 1.99734 7.7921 5.06734 10.0731 2.09598 1.5533 4.68508 2.4782 7.48388 2.4782 2.7987 0 5.3877-.9247 7.4837-2.4782zm0-17.45831c.3737.37404.716.77815 1.0235 1.20827l-1.0235 2.36724-3.8589 8.8647-1.9973-4.5495h-3.255l-1.9973 4.5495-3.85908-8.8647-1.02333-2.36724c.30738-.43015.64964-.83428 1.02333-1.20827.64027-.65371 1.36606-1.21776 2.15758-1.67679l3.6495 8.4949h3.3534l3.6495-8.4949c.7915.45903 1.5173 1.02308 2.1576 1.67679zm0 9.96211 2.5275-5.7948c.3331 1.011.5057 2.096.5057 3.2179 0 2.8726-1.159 5.4866-3.0332 7.3853-.882.8818-1.9076 1.6072-3.0328 2.1451zm-7.4837.8137 2.9345 6.6948c-.9532.2789-1.9413.42-2.9345.4192-.9931.0008-1.9812-.1403-2.9344-.4192zm0-6.5839 3.0208-6.8797c-.9495-.2959-1.9728-.44385-3.0208-.44385s-2.059.14795-3.0207.44385z" fill="#fff"/></g></svg>