<svg fill="none" height="32" viewBox="0 0 32 32" width="32" xmlns="http://www.w3.org/2000/svg" xmlns:xlink="http://www.w3.org/1999/xlink"><radialGradient id="a" cx="0" cy="0" gradientTransform="matrix(28.3819 0 0 29.1928 6.28399 13.2209)" gradientUnits="userSpaceOnUse" r="1"><stop offset="0" stop-color="#fff"/><stop offset=".041" stop-color="#fafaf8"/><stop offset=".225" stop-color="#f8f8f5"/><stop offset=".287" stop-color="#dadad7"/><stop offset=".413" stop-color="#a3a4a1"/><stop offset=".52" stop-color="#7e7f7d"/><stop offset=".6" stop-color="#686866"/><stop offset=".646" stop-color="#5f5f5d"/><stop offset=".739" stop-color="#565754"/><stop offset=".899" stop-color="#3b3a37"/><stop offset="1"/></radialGradient><radialGradient id="b" cx="0" cy="0" gradientTransform="matrix(21.8731 0 0 22.498 20.8998 21.0635)" gradientUnits="userSpaceOnUse" r="1"><stop offset="0" stop-color="#fff"/><stop offset=".157" stop-color="#f1f1f2"/><stop offset=".298" stop-color="#e4e4e5"/><stop offset=".335" stop-color="#cecfce"/><stop offset=".4" stop-color="#aeafac"/><stop offset=".464" stop-color="#969694"/><stop offset=".526" stop-color="#858683"/><stop offset=".586" stop-color="#7c7c79"/><stop offset=".64" stop-color="#787976"/><stop offset=".738" stop-color="#5e5e5b"/><stop offset=".846" stop-color="#43423f"/><stop offset=".937" stop-color="#1f1f1e"/><stop offset="1"/></radialGradient><radialGradient id="c" cx="0" cy="0" gradientTransform="matrix(17.6582 0 0 18.1627 3.26707 13.2215)" gradientUnits="userSpaceOnUse" r="1"><stop offset="0" stop-color="#1e71b8"/><stop offset=".082" stop-color="#1c69ab"/><stop offset=".166" stop-color="#1b64a4"/><stop offset=".242" stop-color="#1a63a1"/><stop offset=".392" stop-color="#185d98"/><stop offset=".685" stop-color="#0f4d80"/><stop offset=".837" stop-color="#004472"/><stop offset=".933" stop-color="#014472"/><stop offset=".968" stop-color="#064271"/><stop offset=".993" stop-color="#0d3f6f"/><stop offset="1" stop-color="#0f3d6e"/></radialGradient><linearGradient id="d" gradientUnits="userSpaceOnUse" x1="29.0924" x2="22.0188" y1="9.37075" y2="2.49292"><stop offset=".006" stop-color="#121209"/><stop offset=".646" stop-color="#454441"/><stop offset=".65" stop-color="#484845"/><stop offset=".655" stop-color="#535350"/><stop offset=".66" stop-color="#646561"/><stop offset=".664" stop-color="#7b7b77"/><stop offset=".669" stop-color="#969792"/><stop offset=".674" stop-color="#bbbbb7"/><stop offset=".678" stop-color="#e8e7e2"/><stop offset=".68" stop-color="#fbfaf5"/><stop offset=".682" stop-color="#f8f7f2"/><stop offset=".684" stop-color="#f0f0ea"/><stop offset=".685" stop-color="#e4e3dd"/><stop offset=".686" stop-color="#d2d2cc"/><stop offset=".687" stop-color="#bbbcb5"/><stop offset=".689" stop-color="#83847d"/><stop offset=".69" stop-color="#6d6d67"/><stop offset=".706" stop-color="#5f5f5b"/><stop offset=".732" stop-color="#4d4d4b"/><stop offset=".762" stop-color="#3b3a3a"/><stop offset=".8" stop-color="#242324"/><stop offset=".853" stop-color="#101010"/><stop offset="1"/></linearGradient><radialGradient id="e" cx="0" cy="0" gradientTransform="matrix(7.37936 0 0 7.5902 28.5257 2.7637)" gradientUnits="userSpaceOnUse" r="1"><stop offset="0" stop-color="#575652"/><stop offset="1" stop-color="#52524e"/></radialGradient><linearGradient id="f" gradientUnits="userSpaceOnUse" x1="5.74044" x2="10.0231" y1="10.1985" y2="15.8302"><stop offset="0" stop-color="#fff"/><stop offset=".109" stop-color="#d5ddf0"/><stop offset=".338" stop-color="#94add9"/><stop offset=".542" stop-color="#668fc9"/><stop offset=".714" stop-color="#447dbf"/><stop offset=".848" stop-color="#2a74ba"/><stop offset=".927" stop-color="#1e71b8"/><stop offset=".947" stop-color="#4079bc"/><stop offset=".967" stop-color="#5580c0"/><stop offset=".985" stop-color="#6085c2"/><stop offset="1" stop-color="#6486c3"/></linearGradient><path d="m15.9999 2c3.1111 0 5.9934 1.0817 8.281 2.87059l1.5098-1.55294 2.6536 2.72941-1.5098 1.6c1.6928 2.35294 2.6536 5.22354 2.6536 8.32944 0 7.7176-6.085 14.0235-13.5882 14.0235-7.50331 0-13.58828-6.3059-13.58828-14.0235 0-7.71833 6.08497-13.9765 13.58828-13.9765zm0 3.29412c-5.719 0-10.38566 4.79998-10.38566 10.68238 0 5.9294 4.66666 10.6823 10.38566 10.6823 5.7189 0 10.3856-4.7529 10.3856-10.6823 0-5.8824-4.6667-10.68238-10.3856-10.68238z" fill="url(#a)"/><path d="m15.9999 5.34131c5.7189 0 10.3856 4.75289 10.3856 10.68299 0 5.8824-4.6667 10.6824-10.3856 10.6824-5.719 0-10.38564-4.8007-10.38564-10.683 0-5.9294 4.66664-10.68239 10.38564-10.68239zm0 1.50588c-4.8954 0-8.87584 4.09411-8.87584 9.17651 0 5.0346 3.98044 9.1294 8.87584 9.1294s8.8758-4.0948 8.8758-9.1294c0-5.0824-3.9804-9.17651-8.8758-9.17651z" fill="url(#b)"/><path d="m29.5426 12.4473c.3203 1.13.4575 2.3058.4575 3.5294 0 1.2706-.183 2.4934-.4575 3.6706h-27.03918v-.0471h26.99348c.3202-1.1765.4575-2.4.4575-3.6706 0-1.2235-.1373-2.4-.4118-3.4823z" fill="#000"/><path d="m2.45752 12.3999h27.08498c.2745 1.1294.4111 2.3052.4111 3.5288 0 1.2705-.1372 2.4941-.4575 3.6705h-26.99283c-.33036-1.1938-.4997-2.4286-.50327-3.6699 0-1.2235.18301-2.4.45752-3.5294z" fill="url(#c)"/><path d="m26.3397 2.37598 3.0196 3.10653-2.2418 2.30588.1373.18824-1.6014 1.31699-.5032.18889 3.2941-3.43529-2.6536-2.72941-3.2941 3.38823.1372-.47059z" fill="url(#d)"/><path d="m23.2031 2.22829c2.6536 1.45882 4.7761 3.63781 6.2395 6.32016l.1468-.09059-.0147-6.35641-6.2369-.0453z" fill="#e9e9e3"/><path d="m23.3374 2.0564c2.6536 1.45883 4.7867 3.70861 6.2501 6.39096v-6.4z" fill="url(#e)"/><path d="m25.7907 17.7375c-1.2213 0-2.2145-.7693-2.2145-1.7137 0-.9451.9932-1.7137 2.2145-1.7137 1.2467 0 2.2609.7686 2.2609 1.7137s-1.0142 1.7137-2.2609 1.7137zm0-2.9176c-.4391 0-.7587.5065-.7587 1.2045 0 .6595.3266 1.1569.7587 1.1569.4105 0 .7587-.5301.7587-1.1569.0006-.6647-.3406-1.2045-.7587-1.2045zm-13.9085 2.9176c-1.222 0-2.21515-.7693-2.21515-1.7137 0-.9039 1.01415-1.6673 2.21515-1.6673 1.2467 0 2.2609.7483 2.2609 1.6673 0 .9451-1.0142 1.7137-2.2609 1.7137zm0-2.8706c-.4334 0-.7587.4974-.7587 1.1575 0 .6595.3266 1.1569.7587 1.1569.4105 0 .7581-.5301.7581-1.1569s-.3463-1.1575-.7581-1.1575zm8.1438 2.7765-1.4348-2.7392-.7149.0111-.0191-.4432 3.1302-.0196.0191.4432-.7969.0196 1.1146 1.9.9271-1.9288-.5319.0281-.019-.4431 2.1694-.0196.019.4431-.7511.0196-1.4068 2.7294h-1.7049zm-5.719 0-.019-.5373.7517-.0189-.0191-2.1922-.7129.0196-.0191-.4431 2.9014-.0196.0191.4431-.7517.0196.019 2.1922.7587-.019c.2466 0 .896-.166.9411-.9228l.4766-.0183.0191 1.498h-4.3649zm-8.18951 0-1.43483-2.7392-.71487.0111-.01906-.4432 3.13018-.0196.01906.4432-.79684.0196 1.11456 1.9.97349-1.9288-.57825.0288-.01906-.4432 2.16939-.0196.01906.4432-.75172.0196-1.40687 2.7294z" fill="#fff"/><path d="m2.50732 12.4541c-.27451 1.1294-.45752 2.3052-.45752 3.5288 0 .1013.03368.7006.03686.8019l.07943.9092c-.00127-.0732-.03686-1.5549-.03686-1.6288 0-1.2235.19826-2.3575.47277-3.4876l9.5843-.0405 4.1367-.0817z" fill="url(#f)"/></svg>